<?xml version="1.0" encoding="utf-8"?>
<!-- Generator: Adobe Illustrator 16.0.0, SVG Export Plug-In . SVG Version: 6.00 Build 0)  -->
<!DOCTYPE svg PUBLIC "-//W3C//DTD SVG 1.1//EN" "http://www.w3.org/Graphics/SVG/1.1/DTD/svg11.dtd" [
	<!ENTITY ns_flows "http://ns.adobe.com/Flows/1.0/">
	<!ENTITY ns_extend "http://ns.adobe.com/Extensibility/1.0/">
	<!ENTITY ns_ai "http://ns.adobe.com/AdobeIllustrator/10.0/">
	<!ENTITY ns_graphs "http://ns.adobe.com/Graphs/1.0/">
]>
<svg version="1.1" id="Layer_1" xmlns:x="&ns_extend;" xmlns:i="&ns_ai;" xmlns:graph="&ns_graphs;"
	 xmlns="http://www.w3.org/2000/svg" xmlns:xlink="http://www.w3.org/1999/xlink" xmlns:a="http://ns.adobe.com/AdobeSVGViewerExtensions/3.0/"
	 x="0px" y="0px" width="83px" height="38px" viewBox="0 0 83 38" style="enable-background:new 0 0 83 38;" xml:space="preserve">
<style type="text/css">
<![CDATA[
	.st0{fill:#FFFFFF;}
	.st1{fill-rule:evenodd;clip-rule:evenodd;fill:#FFFFFF;}
]]>
</style>
<g>
	<g>
		<path class="st1" d="M14.6,12.8c0.2-0.1,0.4-0.3,0.6-0.4c1.6-1.7-1.1-3.3-0.3-5c0.8-1.4,2.1-1,2.3-0.9c-0.4,0.2-0.9,0.6-1.1,1.4
			c-0.2,1.4,1.4,2.6,0.7,4C16.8,12.3,16,13.2,14.6,12.8z"/>
		<path class="st1" d="M19.3,12.8c0.2-0.1,0.4-0.3,0.6-0.4c1.6-1.7-1.1-3.3-0.3-5c0.8-1.4,2.1-1,2.3-0.9c-0.4,0.2-0.9,0.6-1.1,1.4
			c-0.2,1.4,1.4,2.6,0.7,4C21.5,12.3,20.7,13.2,19.3,12.8z"/>
		<path class="st1" d="M17,12.8c0.2-0.1,0.4-0.3,0.6-0.4c1.6-1.7-1.1-3.3-0.3-5c0.8-1.4,2.1-1,2.3-0.9c-0.4,0.2-0.9,0.6-1.1,1.4
			c-0.2,1.4,1.4,2.6,0.7,4C19.1,12.3,18.4,13.2,17,12.8z"/>
	</g>
	<g>
		<path class="st1" d="M12.8,16c0.2,0.2,0.4,0.2,0.7,0.3c2.3,0.5,2.3-2.6,4.2-2.7c1.6,0,1.9,1.3,1.9,1.6c-0.4-0.3-1-0.5-1.7-0.2
			c-1.3,0.5-1.5,2.5-3.1,2.6C14.2,17.6,13.1,17.4,12.8,16z"/>
		<path class="st1" d="M15.1,20.1c0.2,0.2,0.4,0.2,0.7,0.3c2.3,0.5,2.3-2.6,4.2-2.7c1.6,0,1.9,1.3,1.9,1.6c-0.4-0.3-1-0.5-1.7-0.2
			c-1.3,0.5-1.5,2.5-3.1,2.6C16.6,21.7,15.4,21.5,15.1,20.1z"/>
		<path class="st1" d="M13.9,18.1c0.2,0.2,0.4,0.2,0.7,0.3c2.3,0.5,2.3-2.6,4.2-2.7c1.6,0,1.9,1.3,1.9,1.6c-0.4-0.3-1-0.5-1.7-0.2
			c-1.3,0.5-1.5,2.5-3.1,2.6C15.4,19.7,14.2,19.5,13.9,18.1z"/>
	</g>
	<g>
		<path class="st1" d="M9,16c0,0.3,0,0.5,0.1,0.7c0.7,2.3,3.4,0.6,4.5,2.3c0.8,1.4-0.2,2.3-0.4,2.5c0-0.5-0.1-1.1-0.7-1.6
			c-1.1-0.9-2.9-0.1-3.8-1.4C8.3,18.1,7.9,17,9,16z"/>
		<path class="st1" d="M6.7,20.1c0,0.3,0,0.5,0.1,0.7c0.7,2.3,3.4,0.6,4.5,2.3c0.8,1.4-0.2,2.3-0.4,2.4c0-0.5-0.1-1.1-0.7-1.6
			C9,23,7.2,23.8,6.3,22.5C6,22.1,5.6,21,6.7,20.1z"/>
		<path class="st1" d="M7.8,18c0,0.3,0,0.5,0.1,0.7c0.7,2.3,3.4,0.7,4.5,2.3c0.8,1.4-0.2,2.3-0.4,2.4c0-0.5-0.1-1.1-0.7-1.6
			c-1.1-0.9-2.9-0.1-3.8-1.3C7.2,20.1,6.8,19,7.8,18z"/>
	</g>
	<g>
		<path class="st1" d="M7.1,12.8c-0.2,0.1-0.4,0.3-0.6,0.4c-1.6,1.7,1.1,3.3,0.3,5c-0.8,1.4-2.1,1-2.3,0.9c0.4-0.2,0.9-0.6,1.1-1.4
			c0.2-1.4-1.4-2.6-0.7-4C5,13.2,5.7,12.3,7.1,12.8z"/>
		<path class="st1" d="M2.4,12.8C2.2,12.9,2,13,1.8,13.2c-1.6,1.7,1.1,3.3,0.3,5c-0.8,1.4-2.1,1-2.3,0.9c0.4-0.2,0.9-0.6,1.1-1.4
			c0.2-1.4-1.4-2.6-0.7-4C0.3,13.2,1.1,12.3,2.4,12.8z"/>
		<path class="st1" d="M4.8,12.8c-0.2,0.1-0.4,0.3-0.6,0.4c-1.6,1.7,1.1,3.3,0.3,5c-0.8,1.4-2.1,1-2.3,0.9c0.4-0.2,0.9-0.6,1.1-1.4
			c0.2-1.4-1.4-2.6-0.7-4C2.7,13.2,3.4,12.3,4.8,12.8z"/>
	</g>
	<g>
		<path class="st1" d="M9,9.5C8.8,9.3,8.6,9.2,8.4,9.2C6,8.7,6.1,11.8,4.2,11.9c-1.6,0-1.9-1.3-1.9-1.6c0.4,0.3,1,0.5,1.7,0.2
			C5.3,10.1,5.5,8.1,7.1,8C7.6,7.9,8.7,8.1,9,9.5z"/>
		<path class="st1" d="M6.7,5.4C6.5,5.3,6.2,5.2,6,5.1C3.7,4.6,3.7,7.8,1.8,7.9c-1.6,0-1.9-1.3-1.9-1.6c0.4,0.3,1,0.5,1.7,0.2
			C2.9,6,3.1,4,4.7,3.9C5.2,3.8,6.4,4,6.7,5.4z"/>
		<path class="st1" d="M7.8,7.5C7.6,7.3,7.4,7.2,7.2,7.2C4.9,6.6,4.9,9.8,3,9.9c-1.6,0-1.9-1.3-1.9-1.6c0.4,0.3,1,0.5,1.7,0.2
			C4.1,8,4.3,6,5.9,5.9C6.4,5.9,7.5,6.1,7.8,7.5z"/>
	</g>
	<g>
		<path class="st1" d="M12.8,9.5c0-0.3,0-0.5-0.1-0.7C12,6.5,9.3,8.1,8.2,6.5C7.4,5.2,8.4,4.2,8.7,4.1c0,0.5,0.1,1.1,0.7,1.6
			c1.1,0.9,2.9,0.1,3.8,1.3C13.4,7.4,13.8,8.5,12.8,9.5z"/>
		<path class="st1" d="M15.1,5.4c0-0.3,0-0.5-0.1-0.7c-0.7-2.3-3.4-0.6-4.5-2.3C9.8,1.1,10.8,0.2,11,0c0,0.5,0.1,1.1,0.7,1.6
			c1.1,0.9,2.9,0.1,3.8,1.3C15.8,3.4,16.2,4.5,15.1,5.4z"/>
		<path class="st1" d="M13.9,7.5c0-0.3,0-0.5-0.1-0.7c-0.7-2.3-3.4-0.6-4.5-2.3C8.6,3.1,9.6,2.2,9.8,2c0,0.5,0.1,1.1,0.7,1.6
			c1.1,0.9,2.9,0.1,3.8,1.3C14.6,5.4,15,6.5,13.9,7.5z"/>
	</g>
</g>
<g>
	<path class="st0" d="M40.2,7.6c-1.7-1.6-3.7-2.4-6.1-2.4c-2.4,0-4.4,0.8-6.1,2.4c-1.7,1.6-2.5,3.6-2.5,5.9c0,2.3,0.8,4.3,2.5,5.9
		c1.6,1.6,3.7,2.4,6.1,2.4c2.4,0,4.4-0.8,6.1-2.4c1.7-1.6,2.5-3.6,2.5-5.9C42.7,11.2,41.9,9.3,40.2,7.6z M34.2,20.2
		c-1.9,0-3.5-0.6-4.8-1.9c-1.3-1.3-1.9-2.8-1.9-4.7c0-1.9,0.7-3.4,1.9-4.7c1.3-1.3,2.9-1.9,4.8-1.9c1.9,0,3.4,0.6,4.7,1.9
		c1.3,1.3,1.9,2.9,1.9,4.7c0,1.8-0.6,3.4-1.9,4.7C37.6,19.5,36.1,20.2,34.2,20.2z"/>
	<path class="st0" d="M66.1,13.5c-0.6-0.3-1.4-0.7-2.6-1.1c-1.1-0.4-1.9-0.9-2.2-1.3c-0.3-0.4-0.5-0.9-0.5-1.5
		c0-0.8,0.3-1.4,0.9-1.9c0.6-0.5,1.3-0.8,2.2-0.8c0.9,0,2,0.4,3.4,1.2l0.4,0.2l0,0v-2l-0.1-0.1c-1.2-0.7-2.5-1-3.8-1
		c-1.3,0-2.4,0.4-3.4,1.3c-0.9,0.9-1.4,1.9-1.4,3.1c0,0.9,0.2,1.6,0.6,2.2c0.4,0.6,0.9,1,1.4,1.3c0.5,0.3,1.4,0.7,2.6,1.1
		c1.2,0.4,1.9,0.9,2.3,1.4c0.4,0.5,0.5,1,0.5,1.6c0,0.8-0.3,1.5-0.9,2c-0.6,0.5-1.3,0.8-2.2,0.8c-1,0-2.3-0.5-3.8-1.6l-0.4-0.3l0,0
		v2l0,0.1v0l0.1,0.1c1.4,0.9,2.8,1.4,4.2,1.4c1.3,0,2.5-0.4,3.4-1.3c0.9-0.9,1.4-2,1.4-3.3c0-1-0.2-1.8-0.6-2.4
		C67.2,14.3,66.7,13.8,66.1,13.5z"/>
	<rect x="70.2" y="5.4" class="st0" width="1.8" height="16.2"/>
	<path class="st0" d="M82.4,14.9c-0.4-0.6-0.9-1.1-1.5-1.4c-0.6-0.3-1.4-0.7-2.6-1.1c-1.1-0.4-1.9-0.9-2.2-1.3
		c-0.3-0.4-0.5-0.9-0.5-1.5c0-0.8,0.3-1.4,0.9-1.9c0.6-0.5,1.3-0.8,2.2-0.8c0.9,0,2,0.4,3.4,1.2l0.4,0.3v-2l-0.1-0.1
		c-1.2-0.7-2.5-1-3.8-1c-1.3,0-2.4,0.4-3.4,1.3c-0.9,0.9-1.4,1.9-1.4,3.1c0,0.9,0.2,1.6,0.6,2.2c0.4,0.6,0.9,1,1.4,1.3
		c0.5,0.3,1.4,0.7,2.6,1.1c1.2,0.4,1.9,0.9,2.3,1.4c0.4,0.5,0.5,1,0.5,1.6c0,0.8-0.3,1.5-0.9,2c-0.6,0.5-1.3,0.8-2.1,0.8
		c-1,0-2.3-0.5-3.8-1.6l-0.4-0.3l0,0v2l0,0.1l0,0l0.1,0.1c1.4,0.9,2.8,1.4,4.2,1.4c1.3,0,2.5-0.4,3.4-1.3c0.9-0.9,1.4-2,1.4-3.3
		C83,16.3,82.8,15.5,82.4,14.9z"/>
	<polygon class="st0" points="50.5,4.2 50.4,4.2 42.6,21.2 42.4,21.6 42.4,21.6 44.3,21.6 50.4,8.3 56.5,21.5 56.5,21.6 56.5,21.6 
		58.4,21.6 51,5.5 	"/>
</g>
<g>
	<path class="st0" d="M15.6,32h0.8v5.5h-0.8v-2.4h-3.1v2.4h-0.8V32h0.8v2.4h3.1V32z"/>
	<path class="st0" d="M20.3,31.9c0.9,0,1.6,0.3,2.1,0.8c0.6,0.5,0.9,1.2,0.9,2c0,0.8-0.3,1.5-0.9,2c-0.6,0.5-1.3,0.8-2.2,0.8
		c-0.8,0-1.5-0.3-2.1-0.8c-0.6-0.5-0.8-1.2-0.8-2c0-0.8,0.3-1.5,0.8-2C18.8,32.2,19.5,31.9,20.3,31.9z M20.4,32.7
		c-0.6,0-1.2,0.2-1.6,0.6s-0.6,0.9-0.6,1.5c0,0.6,0.2,1.1,0.6,1.5c0.4,0.4,0.9,0.6,1.5,0.6c0.6,0,1.1-0.2,1.5-0.6
		c0.4-0.4,0.6-0.9,0.6-1.5c0-0.6-0.2-1.1-0.6-1.5C21.5,32.9,21,32.7,20.4,32.7z"/>
	<path class="st0" d="M23.3,32h4.6v0.7H26v4.8h-0.8v-4.8h-1.9V32z"/>
	<path class="st0" d="M28.7,32h3.1v0.7h-2.3v1.7h2.3v0.7h-2.3v1.7h2.4v0.7h-3.2V32z"/>
	<path class="st0" d="M32.8,32h0.8v4.8h2.5v0.7h-3.3V32z"/>
	<path class="st0" d="M38.2,35.2l-0.6-0.4c-0.4-0.2-0.6-0.5-0.8-0.7c-0.2-0.2-0.2-0.5-0.2-0.8c0-0.4,0.2-0.8,0.5-1.1
		c0.3-0.3,0.7-0.4,1.2-0.4c0.5,0,0.9,0.1,1.3,0.4v0.9c-0.4-0.4-0.8-0.6-1.3-0.6c-0.3,0-0.5,0.1-0.6,0.2c-0.2,0.1-0.2,0.3-0.2,0.5
		c0,0.2,0.1,0.3,0.2,0.5c0.1,0.1,0.3,0.3,0.6,0.5l0.6,0.4c0.7,0.4,1,0.9,1,1.5c0,0.4-0.1,0.8-0.4,1.1c-0.3,0.3-0.7,0.4-1.2,0.4
		c-0.5,0-1-0.2-1.5-0.5v-1c0.4,0.5,0.9,0.8,1.5,0.8c0.2,0,0.5-0.1,0.6-0.2c0.2-0.1,0.2-0.3,0.2-0.5C38.9,35.8,38.7,35.5,38.2,35.2z"
		/>
	<path class="st0" d="M46.3,37.5l-0.6-0.8c-0.1,0.1-0.2,0.1-0.3,0.2l0,0c-0.2,0.2-0.4,0.3-0.7,0.4c-0.3,0.1-0.5,0.2-0.8,0.2
		c-0.4,0-0.7-0.1-1-0.4c-0.3-0.3-0.4-0.6-0.4-0.9c0-0.3,0.1-0.5,0.2-0.7c0.1-0.2,0.3-0.4,0.6-0.6l0,0c0.2-0.1,0.3-0.2,0.4-0.3
		c-0.4-0.4-0.6-0.9-0.6-1.3c0-0.4,0.1-0.7,0.4-0.9c0.3-0.2,0.6-0.4,1-0.4c0.4,0,0.7,0.1,1,0.3c0.3,0.2,0.4,0.5,0.4,0.9
		c0,0.5-0.3,1-1,1.4l-0.1,0l0.8,0.9c0.2-0.2,0.4-0.5,0.6-0.9H47c-0.2,0.5-0.5,1-0.9,1.5l1.1,1.3H46.3z M44.9,36.4l0.2-0.2l-0.9-1
		l-0.3,0.2c-0.4,0.3-0.6,0.6-0.6,0.8c0,0.2,0.1,0.3,0.2,0.4c0.1,0.1,0.3,0.2,0.5,0.2c0.1,0,0.3,0,0.5-0.1
		C44.6,36.6,44.8,36.5,44.9,36.4z M44.4,34.3l0.3-0.2c0.3-0.2,0.4-0.4,0.4-0.7c0-0.2-0.1-0.3-0.2-0.4c-0.1-0.1-0.3-0.2-0.4-0.2
		c-0.2,0-0.3,0-0.4,0.1c-0.1,0.1-0.2,0.2-0.2,0.4c0,0.1,0,0.3,0.1,0.5C44.2,34,44.3,34.1,44.4,34.3z"/>
	<path class="st0" d="M50.3,37.5V32h1.4c0.6,0,1,0.1,1.3,0.4c0.3,0.3,0.5,0.6,0.5,1.1c0,0.3-0.1,0.6-0.2,0.8
		c-0.2,0.2-0.4,0.4-0.7,0.5c0.2,0.1,0.3,0.3,0.5,0.5c0.2,0.2,0.4,0.5,0.7,1c0.2,0.3,0.3,0.5,0.5,0.7l0.3,0.4h-0.9l-0.2-0.4
		c0,0,0,0,0-0.1l-0.2-0.2l-0.2-0.4l-0.3-0.4c-0.2-0.2-0.3-0.4-0.5-0.5c-0.1-0.1-0.3-0.2-0.4-0.3c-0.1-0.1-0.3-0.1-0.6-0.1h-0.2v2.4
		H50.3z M51.3,32.7h-0.2v1.7h0.3c0.4,0,0.7,0,0.8-0.1c0.2-0.1,0.3-0.2,0.3-0.3c0.1-0.1,0.1-0.3,0.1-0.5c0-0.2,0-0.3-0.1-0.5
		c-0.1-0.1-0.2-0.2-0.4-0.3C52,32.7,51.7,32.7,51.3,32.7z"/>
	<path class="st0" d="M55.2,32h3.1v0.7H56v1.7h2.3v0.7H56v1.7h2.4v0.7h-3.2V32z"/>
	<path class="st0" d="M60.6,35.2L60,34.9c-0.4-0.2-0.6-0.5-0.8-0.7C59.1,34,59,33.7,59,33.4c0-0.4,0.2-0.8,0.5-1.1
		c0.3-0.3,0.7-0.4,1.2-0.4c0.5,0,0.9,0.1,1.3,0.4v0.9c-0.4-0.4-0.8-0.6-1.3-0.6c-0.3,0-0.5,0.1-0.6,0.2c-0.2,0.1-0.3,0.3-0.3,0.5
		c0,0.2,0.1,0.3,0.2,0.5c0.1,0.1,0.3,0.3,0.6,0.5l0.6,0.4c0.7,0.4,1,0.9,1,1.5c0,0.4-0.1,0.8-0.4,1.1c-0.3,0.3-0.7,0.4-1.2,0.4
		c-0.5,0-1-0.2-1.5-0.5v-1c0.4,0.5,0.9,0.8,1.5,0.8c0.2,0,0.5-0.1,0.6-0.2c0.2-0.1,0.2-0.3,0.2-0.5C61.3,35.8,61.1,35.5,60.6,35.2z"
		/>
	<path class="st0" d="M65.7,31.9c0.9,0,1.6,0.3,2.1,0.8c0.6,0.5,0.9,1.2,0.9,2c0,0.8-0.3,1.5-0.9,2c-0.6,0.5-1.3,0.8-2.2,0.8
		c-0.8,0-1.5-0.3-2.1-0.8c-0.6-0.5-0.8-1.2-0.8-2c0-0.8,0.3-1.5,0.8-2C64.2,32.2,64.9,31.9,65.7,31.9z M65.7,32.7
		c-0.6,0-1.2,0.2-1.6,0.6s-0.6,0.9-0.6,1.5c0,0.6,0.2,1.1,0.6,1.5c0.4,0.4,0.9,0.6,1.5,0.6c0.6,0,1.1-0.2,1.5-0.6
		c0.4-0.4,0.6-0.9,0.6-1.5c0-0.6-0.2-1.1-0.6-1.5C66.8,32.9,66.3,32.7,65.7,32.7z"/>
	<path class="st0" d="M69.7,37.5V32h1.4c0.6,0,1,0.1,1.3,0.4c0.3,0.3,0.5,0.6,0.5,1.1c0,0.3-0.1,0.6-0.2,0.8
		c-0.2,0.2-0.4,0.4-0.7,0.5c0.2,0.1,0.3,0.3,0.5,0.5c0.2,0.2,0.4,0.5,0.7,1c0.2,0.3,0.3,0.5,0.5,0.7l0.3,0.4H73l-0.2-0.4
		c0,0,0,0,0-0.1l-0.2-0.2l-0.2-0.4l-0.3-0.4c-0.2-0.2-0.3-0.4-0.4-0.5c-0.1-0.1-0.3-0.2-0.4-0.3c-0.1-0.1-0.3-0.1-0.6-0.1h-0.2v2.4
		H69.7z M70.8,32.7h-0.2v1.7h0.3c0.4,0,0.7,0,0.8-0.1c0.1-0.1,0.3-0.2,0.3-0.3c0.1-0.1,0.1-0.3,0.1-0.5c0-0.2,0-0.3-0.1-0.5
		c-0.1-0.1-0.2-0.2-0.4-0.3C71.4,32.7,71.1,32.7,70.8,32.7z"/>
	<path class="st0" d="M73.4,32H78v0.7h-1.9v4.8h-0.8v-4.8h-1.9V32z"/>
	<path class="st0" d="M80.2,35.2l-0.6-0.4c-0.4-0.2-0.6-0.5-0.8-0.7c-0.2-0.2-0.2-0.5-0.2-0.8c0-0.4,0.2-0.8,0.5-1.1
		c0.3-0.3,0.7-0.4,1.2-0.4c0.5,0,0.9,0.1,1.3,0.4v0.9c-0.4-0.4-0.8-0.6-1.3-0.6c-0.3,0-0.5,0.1-0.6,0.2c-0.2,0.1-0.2,0.3-0.2,0.5
		c0,0.2,0.1,0.3,0.2,0.5c0.1,0.1,0.3,0.3,0.6,0.5l0.6,0.4c0.7,0.4,1,0.9,1,1.5c0,0.4-0.1,0.8-0.4,1.1c-0.3,0.3-0.7,0.4-1.2,0.4
		c-0.5,0-1-0.2-1.5-0.5v-1c0.4,0.5,0.9,0.8,1.5,0.8c0.2,0,0.5-0.1,0.6-0.2c0.2-0.1,0.2-0.3,0.2-0.5C80.9,35.8,80.7,35.5,80.2,35.2z"
		/>
</g>
</svg>
